{"title":"Viceroy's House 2017 720p Esub BluRay Dual Audio English Hindi G","magnet":"magnet:?xt=urn:btih:cb079072ee820e5f185562fc959b692fb39256be&dn=Viceroy%27s+House+2017+720p+Esub+BluRay+Dual+Audio+English+Hindi+G&tr=udp%3A%2F%2Ftracker.leechers-paradise.org%3A6969&tr=udp%3A%2F%2Fzer0day.ch%3A1337&tr=udp%3A%2F%2Fopen.demonii.com%3A1337&tr=udp%3A%2F%2Ftracker.coppersurfer.tk%3A6969&tr=udp%3A%2F%2Fexodus.desync.com%3A6969","uploader":"jatt13","categoryP":"video","categoryS":"hd___movies","size":"536783457","seeders":"1","leechers":"148","description":"[center][img]https://lookimg.com/images/2017/11/03/Oh4bR.jpg[/img]\r\nFormat                         : Matroska\r\nFormat version                 : Version 4 / Version 2\r\nFile size                      : 512 MiB\r\nDuration                       : 1 h 47 min\r\nOverall bit rate               : 667 kb/s\r\nMovie name                     : Viceroy&apos;s House 2017\r\n\r\nVideo\r\nFormat                         : AVC\r\nCodec ID                       : V_MPEG4/ISO/AVC\r\nDuration                       : 1 h 46 min\r\nBit rate                       : 500 kb/s\r\nWidth                          : 1 280 pixels\r\nHeight                         : 534 pixels\r\nDisplay aspect ratio           : 2.40:1\r\nFrame rate mode                : Constant\r\nFrame rate                     : 24.000 FPS\r\nStream size                    : 380 MiB (74%)\r\nWriting library                : x264 \r\n\r\nAudio #1\r\nFormat                         : AAC\r\nDuration                       : 1 h 46 min\r\nBit rate                       : 82.5 kb/s\r\nChannel(s)                     : 6 channels\r\nChannel positions              : Front: L C R, Side: L R, LFE\r\nSampling rate                  : 44.1 kHz\r\nFrame rate                     : 43.066 FPS (1024 SPF)\r\nStream size                    : 62.6 MiB (12%)\r\nLanguage                       : English\r\n\r\nAudio #2\r\nFormat                         : AAC\r\nDuration                       : 1 h 47 min\r\nBit rate                       : 87.5 kb/s\r\nChannel(s)                     : 6 channels\r\nChannel positions              : Front: L C R, Side: L R, LFE\r\nSampling rate                  : 44.1 kHz\r\nFrame rate                     : 43.066 FPS (1024 SPF)\r\nStream size                    : 67.1 MiB (13%)\r\nLanguage                       : Hindi\r\n\r\nText\r\nLanguage                       : English\r\n[img]https://lookimg.com/images/2017/11/03/OhS9e.jpg[/img]\r\n[img]https://lookimg.com/images/2017/11/03/OhsfU.jpg[/img]\r\n[img]https://lookimg.com/images/2017/11/03/Oh1Xn.jpg[/img][/center]","last_updated":"2017-11-03T12:13:41.874Z","parsed":{"xt":"urn:btih:cb079072ee820e5f185562fc959b692fb39256be","dn":"Viceroy's House 2017 720p Esub BluRay Dual Audio English Hindi G","tr":["udp://exodus.desync.com:6969","udp://open.demonii.com:1337","udp://tracker.coppersurfer.tk:6969","udp://tracker.leechers-paradise.org:6969","udp://zer0day.ch:1337"],"infoHash":"cb079072ee820e5f185562fc959b692fb39256be","infoHashBuffer":{"type":"Buffer","data":[203,7,144,114,238,130,14,95,24,85,98,252,149,155,105,47,179,146,86,190]},"name":"Viceroy's House 2017 720p Esub BluRay Dual Audio English Hindi G","announce":["udp://exodus.desync.com:6969","udp://open.demonii.com:1337","udp://tracker.coppersurfer.tk:6969","udp://tracker.leechers-paradise.org:6969","udp://zer0day.ch:1337"],"urlList":[]}}